<svg width="256" height="256" viewBox="0 0 256 256" fill="none" xmlns="http://www.w3.org/2000/svg">
<g clip-path="url(#clip0_7468_31468)">
<g filter="url(#filter0_d_7468_31468)">
<mask id="mask0_7468_31468" style="mask-type:alpha" maskUnits="userSpaceOnUse" x="42" y="12" width="173" height="232">
<path d="M42.667 20.858C42.667 16.146 46.4868 12.3262 51.1988 12.3262H145.167C148.907 12.3262 152.498 13.7958 155.164 16.4183L210.07 70.4167C212.795 73.0969 214.33 76.7592 214.33 80.5816V234.499C214.33 239.211 210.51 243.031 205.798 243.031H51.1988C46.4868 243.031 42.667 239.211 42.667 234.499V20.858Z" fill="#F2F2F2" style="fill:#F2F2F2;fill:color(display-p3 0.9490 0.9490 0.9490);fill-opacity:1;"/>
</mask>
<g mask="url(#mask0_7468_31468)">
<rect x="-6.55762" y="14.0737" width="228.884" height="228.884" fill="black" style="fill:black;fill-opacity:1;"/>
<rect x="-6.55762" y="14.0737" width="228.884" height="228.884" rx="1.52753" fill="#F2F1F1" style="fill:#F2F1F1;fill:color(display-p3 0.9490 0.9451 0.9451);fill-opacity:1;"/>
<rect x="-6.55762" y="14.0737" width="228.884" height="228.884" rx="1.52753" fill="#F2F1F1" style="fill:#F2F1F1;fill:color(display-p3 0.9490 0.9451 0.9451);fill-opacity:1;"/>
<rect x="-6.55762" y="14.0737" width="228.884" height="228.884" rx="1.52753" fill="#F2F1F1" style="fill:#F2F1F1;fill:color(display-p3 0.9490 0.9451 0.9451);fill-opacity:1;"/>
<rect x="-7.43164" y="12.3262" width="230.633" height="230.633" rx="1.5392" fill="#F2F1F1" style="fill:#F2F1F1;fill:color(display-p3 0.9490 0.9451 0.9451);fill-opacity:1;"/>
<g filter="url(#filter1_di_7468_31468)">
<path d="M150.862 69.4148V10.1854C150.862 9.95949 151.135 9.84549 151.296 10.004L217.943 75.6714C218.268 75.9911 218.041 76.5433 217.586 76.5433H157.991C154.054 76.5433 150.862 73.3518 150.862 69.4148Z" fill="#F2F1F1" style="fill:#F2F1F1;fill:color(display-p3 0.9490 0.9451 0.9451);fill-opacity:1;"/>
</g>
</g>
<path d="M73.7459 215.092C73.0697 215.092 72.5231 214.895 72.106 214.501C71.689 214.095 71.4805 213.582 71.4805 212.962C71.4805 212.331 71.689 211.818 72.106 211.424C72.5231 211.029 73.0697 210.832 73.7459 210.832C74.4221 210.832 74.9687 211.029 75.3857 211.424C75.8028 211.818 76.0113 212.331 76.0113 212.962C76.0113 213.582 75.8028 214.095 75.3857 214.501C74.9687 214.895 74.4221 215.092 73.7459 215.092ZM82.3857 214.704V190.021H85.4287V200.723C86.0598 199.686 86.8488 198.874 87.7955 198.288C88.7535 197.691 89.858 197.392 91.109 197.392H91.464C93.3462 197.392 94.817 198.035 95.8764 199.319C96.9358 200.604 97.4655 202.436 97.4655 204.814V214.704H94.4225V205.203C94.4225 201.731 93.1828 199.996 90.7033 199.996H90.3651C89.1592 199.996 88.1336 200.379 87.2883 201.145C86.4543 201.912 85.8344 202.887 85.4287 204.07V214.704H82.3857ZM108.69 215.042C106.909 215.042 105.528 214.591 104.548 213.689C103.567 212.776 103.077 211.576 103.077 210.088C103.077 208.443 103.68 207.175 104.886 206.285C106.092 205.394 107.805 204.949 110.025 204.949H114.776V204.628C114.776 201.517 113.401 199.962 110.651 199.962C109.524 199.962 108.571 200.176 107.794 200.604C107.027 201.033 106.407 201.636 105.934 202.413L103.838 200.909C104.537 199.782 105.466 198.914 106.627 198.305C107.788 197.697 109.118 197.392 110.617 197.392H110.972C113.023 197.392 114.663 197.99 115.892 199.184C117.131 200.368 117.751 202.126 117.751 204.459V214.704H114.827V211.779C114.173 212.816 113.322 213.622 112.274 214.196C111.237 214.76 110.042 215.042 108.69 215.042ZM109.332 212.54C110.696 212.54 111.829 212.207 112.73 211.542C113.643 210.866 114.325 209.953 114.776 208.804V207.164H110.144C107.484 207.164 106.154 208.071 106.154 209.885C106.154 210.708 106.419 211.356 106.948 211.83C107.478 212.303 108.273 212.54 109.332 212.54ZM127.421 221.804H124.378V197.798H127.421V200.418C128.041 199.415 128.841 198.66 129.822 198.153C130.814 197.646 131.89 197.392 133.051 197.392H133.406C134.905 197.392 136.206 197.77 137.311 198.525C138.427 199.269 139.295 200.306 139.914 201.636C140.534 202.965 140.844 204.504 140.844 206.251C140.844 207.986 140.534 209.525 139.914 210.866C139.295 212.196 138.427 213.238 137.311 213.994C136.206 214.737 134.905 215.109 133.406 215.109H133.051C131.856 215.109 130.768 214.839 129.788 214.298C128.807 213.757 128.018 212.957 127.421 211.897V221.804ZM132.341 212.506H132.662C134.206 212.506 135.429 211.959 136.33 210.866C137.243 209.773 137.7 208.234 137.7 206.251C137.7 204.256 137.243 202.717 136.33 201.636C135.429 200.542 134.206 199.996 132.662 199.996H132.341C131.225 199.996 130.239 200.351 129.382 201.061C128.537 201.76 127.883 202.678 127.421 203.816V208.685C127.883 209.824 128.537 210.748 129.382 211.458C130.239 212.156 131.225 212.506 132.341 212.506ZM153.697 214.923C151.747 214.923 150.31 214.45 149.386 213.503C148.473 212.545 148.017 211.041 148.017 208.989V200.232H144.703V197.798H148.017V192.76H151.06V197.798H156.537V200.232H151.06V208.618C151.06 210.015 151.291 210.99 151.753 211.542C152.226 212.083 153.021 212.354 154.137 212.354C154.644 212.354 155.1 212.326 155.506 212.269C155.912 212.213 156.335 212.145 156.774 212.066V214.535C156.323 214.647 155.827 214.737 155.286 214.805C154.745 214.884 154.216 214.923 153.697 214.923ZM163.732 194.315C163.089 194.315 162.582 194.129 162.21 193.757C161.85 193.374 161.669 192.89 161.669 192.304C161.669 191.706 161.85 191.222 162.21 190.85C162.582 190.478 163.089 190.292 163.732 190.292C164.374 190.292 164.876 190.478 165.236 190.85C165.608 191.222 165.794 191.706 165.794 192.304C165.794 192.89 165.608 193.374 165.236 193.757C164.876 194.129 164.374 194.315 163.732 194.315ZM162.21 214.704V197.798H165.253V214.704H162.21ZM179.431 215.109C177.819 215.109 176.399 214.749 175.17 214.027C173.942 213.306 172.978 212.286 172.28 210.967C171.592 209.638 171.248 208.071 171.248 206.268C171.248 204.453 171.592 202.881 172.28 201.551C172.967 200.221 173.925 199.195 175.154 198.474C176.382 197.753 177.808 197.392 179.431 197.392H179.786C181.082 197.392 182.299 197.719 183.437 198.373C184.576 199.015 185.5 199.906 186.21 201.044L183.86 202.565C183.364 201.765 182.767 201.14 182.068 200.689C181.369 200.227 180.575 199.996 179.684 199.996H179.363C177.83 199.996 176.619 200.565 175.728 201.703C174.849 202.841 174.41 204.357 174.41 206.251C174.41 208.144 174.849 209.66 175.728 210.798C176.619 211.937 177.83 212.506 179.363 212.506H179.684C180.586 212.506 181.403 212.303 182.136 211.897C182.868 211.492 183.494 210.945 184.012 210.257L186.21 211.931C185.477 212.923 184.547 213.701 183.42 214.264C182.305 214.828 181.093 215.109 179.786 215.109H179.431Z" fill="#65676B" style="fill:#65676B;fill:color(display-p3 0.3961 0.4039 0.4196);fill-opacity:1;"/>
</g>
<ellipse cx="128.002" cy="128.256" rx="21.1772" ry="21.2591" stroke="#3485FF" style="stroke:#3485FF;stroke:color(display-p3 0.2039 0.5216 1.0000);stroke-opacity:1;" stroke-width="5.04268"/>
<path d="M106.826 153.635C99.647 149.454 92.8174 140.343 92.8174 127.735C92.8174 115.126 99.647 106.068 106.826 101.888" stroke="url(#paint0_linear_7468_31468)" stroke-width="5.04268" stroke-linecap="round"/>
<path d="M149.18 101.888C156.359 106.068 163.188 115.179 163.188 127.788C163.188 140.397 156.359 149.454 149.18 153.635" stroke="url(#paint1_linear_7468_31468)" stroke-width="5.04268" stroke-linecap="round"/>
<path d="M102.705 165.006C92.4011 158.988 82.5986 145.874 82.5986 127.723C82.5986 109.573 92.4011 96.5351 102.705 90.517" stroke="url(#paint2_linear_7468_31468)" stroke-width="5.04268" stroke-linecap="round"/>
<path d="M153.135 90.5181C163.523 96.5362 173.406 109.651 173.406 127.801C173.406 145.952 163.523 158.989 153.135 165.007" stroke="url(#paint3_linear_7468_31468)" stroke-width="5.04268" stroke-linecap="round"/>
<path d="M96.2784 175.389C83.0189 167.693 70.4043 150.923 70.4043 127.713C70.4043 104.503 83.0189 87.8309 96.2784 80.1351" stroke="url(#paint4_linear_7468_31468)" stroke-width="5.04268" stroke-linecap="round"/>
<path d="M159.727 80.1328C172.987 87.8286 185.602 104.599 185.602 127.809C185.602 151.019 172.987 167.691 159.727 175.387" stroke="url(#paint5_linear_7468_31468)" stroke-width="5.04268" stroke-linecap="round"/>
</g>
<defs>
<filter id="filter0_d_7468_31468" x="35.5385" y="10.2895" width="185.92" height="244.889" filterUnits="userSpaceOnUse" color-interpolation-filters="sRGB">
<feFlood flood-opacity="0" result="BackgroundImageFix"/>
<feColorMatrix in="SourceAlpha" type="matrix" values="0 0 0 0 0 0 0 0 0 0 0 0 0 0 0 0 0 0 127 0" result="hardAlpha"/>
<feOffset dy="5.09177"/>
<feGaussianBlur stdDeviation="3.56424"/>
<feComposite in2="hardAlpha" operator="out"/>
<feColorMatrix type="matrix" values="0 0 0 0 0 0 0 0 0 0 0 0 0 0 0 0 0 0 0.3 0"/>
<feBlend mode="normal" in2="BackgroundImageFix" result="effect1_dropShadow_7468_31468"/>
<feBlend mode="normal" in="SourceGraphic" in2="effect1_dropShadow_7468_31468" result="shape"/>
</filter>
<filter id="filter1_di_7468_31468" x="135.587" y="2.29252" width="92.6922" height="92.0721" filterUnits="userSpaceOnUse" color-interpolation-filters="sRGB">
<feFlood flood-opacity="0" result="BackgroundImageFix"/>
<feColorMatrix in="SourceAlpha" type="matrix" values="0 0 0 0 0 0 0 0 0 0 0 0 0 0 0 0 0 0 127 0" result="hardAlpha"/>
<feOffset dx="-2.54588" dy="5.09177"/>
<feGaussianBlur stdDeviation="6.36471"/>
<feComposite in2="hardAlpha" operator="out"/>
<feColorMatrix type="matrix" values="0 0 0 0 0 0 0 0 0 0 0 0 0 0 0 0 0 0 0.3 0"/>
<feBlend mode="normal" in2="BackgroundImageFix" result="effect1_dropShadow_7468_31468"/>
<feBlend mode="normal" in="SourceGraphic" in2="effect1_dropShadow_7468_31468" result="shape"/>
<feColorMatrix in="SourceAlpha" type="matrix" values="0 0 0 0 0 0 0 0 0 0 0 0 0 0 0 0 0 0 127 0" result="hardAlpha"/>
<feOffset dx="-2.54588" dy="2.54588"/>
<feGaussianBlur stdDeviation="2.54588"/>
<feComposite in2="hardAlpha" operator="arithmetic" k2="-1" k3="1"/>
<feColorMatrix type="matrix" values="0 0 0 0 0 0 0 0 0 0 0 0 0 0 0 0 0 0 0.05 0"/>
<feBlend mode="normal" in2="shape" result="effect2_innerShadow_7468_31468"/>
</filter>
<linearGradient id="paint0_linear_7468_31468" x1="106.826" y1="127.761" x2="92.8174" y2="127.761" gradientUnits="userSpaceOnUse">
<stop stop-color="#F2F1F1" stop-opacity="0.1" style="stop-color:#F2F1F1;stop-color:color(display-p3 0.9490 0.9451 0.9451);stop-opacity:0.1;"/>
<stop offset="1" stop-color="#3485FF" style="stop-color:#3485FF;stop-color:color(display-p3 0.2039 0.5216 1.0000);stop-opacity:1;"/>
</linearGradient>
<linearGradient id="paint1_linear_7468_31468" x1="163.188" y1="127.761" x2="149.18" y2="127.761" gradientUnits="userSpaceOnUse">
<stop stop-color="#3485FF" style="stop-color:#3485FF;stop-color:color(display-p3 0.2039 0.5216 1.0000);stop-opacity:1;"/>
<stop offset="1" stop-color="#F2F1F1" stop-opacity="0.1" style="stop-color:#F2F1F1;stop-color:color(display-p3 0.9490 0.9451 0.9451);stop-opacity:0.1;"/>
</linearGradient>
<linearGradient id="paint2_linear_7468_31468" x1="102.705" y1="127.762" x2="82.5986" y2="127.762" gradientUnits="userSpaceOnUse">
<stop stop-color="#F2F1F1" stop-opacity="0.1" style="stop-color:#F2F1F1;stop-color:color(display-p3 0.9490 0.9451 0.9451);stop-opacity:0.1;"/>
<stop offset="1" stop-color="#3485FF" style="stop-color:#3485FF;stop-color:color(display-p3 0.2039 0.5216 1.0000);stop-opacity:1;"/>
</linearGradient>
<linearGradient id="paint3_linear_7468_31468" x1="173.406" y1="127.763" x2="153.135" y2="127.763" gradientUnits="userSpaceOnUse">
<stop stop-color="#3485FF" style="stop-color:#3485FF;stop-color:color(display-p3 0.2039 0.5216 1.0000);stop-opacity:1;"/>
<stop offset="1" stop-color="#F2F1F1" stop-opacity="0.1" style="stop-color:#F2F1F1;stop-color:color(display-p3 0.9490 0.9451 0.9451);stop-opacity:0.1;"/>
</linearGradient>
<linearGradient id="paint4_linear_7468_31468" x1="96.2784" y1="127.762" x2="70.4043" y2="127.762" gradientUnits="userSpaceOnUse">
<stop stop-color="#F2F1F1" stop-opacity="0.1" style="stop-color:#F2F1F1;stop-color:color(display-p3 0.9490 0.9451 0.9451);stop-opacity:0.1;"/>
<stop offset="1" stop-color="#3485FF" style="stop-color:#3485FF;stop-color:color(display-p3 0.2039 0.5216 1.0000);stop-opacity:1;"/>
</linearGradient>
<linearGradient id="paint5_linear_7468_31468" x1="185.602" y1="127.76" x2="159.727" y2="127.76" gradientUnits="userSpaceOnUse">
<stop stop-color="#3485FF" style="stop-color:#3485FF;stop-color:color(display-p3 0.2039 0.5216 1.0000);stop-opacity:1;"/>
<stop offset="1" stop-color="#F2F1F1" stop-opacity="0.1" style="stop-color:#F2F1F1;stop-color:color(display-p3 0.9490 0.9451 0.9451);stop-opacity:0.1;"/>
</linearGradient>
<clipPath id="clip0_7468_31468">
<rect width="256" height="256" fill="white" style="fill:white;fill-opacity:1;"/>
</clipPath>
</defs>
</svg>
