<svg width="256" height="256" viewBox="0 0 256 256" fill="none" xmlns="http://www.w3.org/2000/svg">
<g clip-path="url(#clip0_841_14104)">
<g filter="url(#filter0_d_841_14104)">
<mask id="mask0_841_14104" style="mask-type:alpha" maskUnits="userSpaceOnUse" x="42" y="12" width="173" height="232">
<path d="M42.667 20.8587C42.667 16.1467 46.4868 12.3269 51.1988 12.3269H145.167C148.907 12.3269 152.498 13.7965 155.164 16.419L210.07 70.4175C212.795 73.0977 214.33 76.7599 214.33 80.5823V234.499C214.33 239.211 210.51 243.031 205.798 243.031H51.1988C46.4868 243.031 42.667 239.211 42.667 234.499V20.8587Z" fill="#F2F2F2"/>
</mask>
<g mask="url(#mask0_841_14104)">
<rect x="-6.55762" y="14.0743" width="228.884" height="228.884" fill="black"/>
<rect x="-6.55762" y="14.0743" width="228.884" height="228.884" rx="1.52753" fill="#F2F1F1"/>
<rect x="-6.55762" y="14.0743" width="228.884" height="228.884" rx="1.52753" fill="#F2F1F1"/>
<rect x="-6.55762" y="14.0743" width="228.884" height="228.884" rx="1.52753" fill="#F2F1F1"/>
<rect x="-7.43164" y="12.3271" width="230.633" height="230.633" rx="1.5392" fill="#F2F1F1"/>
<g filter="url(#filter1_di_841_14104)">
<path d="M150.862 69.4155V10.1861C150.862 9.96019 151.135 9.8462 151.296 10.0047L217.943 75.6721C218.268 75.9918 218.041 76.544 217.586 76.544H157.991C154.054 76.544 150.862 73.3525 150.862 69.4155Z" fill="#F2F1F1"/>
</g>
</g>
<path d="M73.7459 215.093C73.0697 215.093 72.5231 214.896 72.106 214.501C71.689 214.095 71.4805 213.583 71.4805 212.963C71.4805 212.332 71.689 211.819 72.106 211.424C72.5231 211.03 73.0697 210.833 73.7459 210.833C74.4221 210.833 74.9687 211.03 75.3857 211.424C75.8028 211.819 76.0113 212.332 76.0113 212.963C76.0113 213.583 75.8028 214.095 75.3857 214.501C74.9687 214.896 74.4221 215.093 73.7459 215.093ZM82.3857 214.704V190.022H85.4287V200.723C86.0598 199.686 86.8488 198.875 87.7955 198.289C88.7535 197.691 89.858 197.393 91.109 197.393H91.464C93.3462 197.393 94.817 198.035 95.8764 199.32C96.9358 200.605 97.4655 202.436 97.4655 204.814V214.704H94.4225V205.203C94.4225 201.732 93.1828 199.996 90.7033 199.996H90.3651C89.1592 199.996 88.1336 200.379 87.2883 201.146C86.4543 201.912 85.8344 202.887 85.4287 204.07V214.704H82.3857ZM108.69 215.042C106.909 215.042 105.528 214.591 104.548 213.69C103.567 212.777 103.077 211.576 103.077 210.089C103.077 208.443 103.68 207.175 104.886 206.285C106.092 205.395 107.805 204.949 110.025 204.949H114.776V204.628C114.776 201.518 113.401 199.962 110.651 199.962C109.524 199.962 108.571 200.176 107.794 200.605C107.027 201.033 106.407 201.636 105.934 202.414L103.838 200.909C104.537 199.782 105.466 198.914 106.627 198.306C107.788 197.697 109.118 197.393 110.617 197.393H110.972C113.023 197.393 114.663 197.99 115.892 199.185C117.131 200.368 117.751 202.126 117.751 204.459V214.704H114.827V211.779C114.173 212.816 113.322 213.622 112.274 214.197C111.237 214.76 110.042 215.042 108.69 215.042ZM109.332 212.54C110.696 212.54 111.829 212.208 112.73 211.543C113.643 210.866 114.325 209.954 114.776 208.804V207.164H110.144C107.484 207.164 106.154 208.071 106.154 209.886C106.154 210.709 106.419 211.357 106.948 211.83C107.478 212.303 108.273 212.54 109.332 212.54ZM127.421 221.804H124.378V197.798H127.421V200.419C128.041 199.416 128.841 198.661 129.822 198.153C130.814 197.646 131.89 197.393 133.051 197.393H133.406C134.905 197.393 136.206 197.77 137.311 198.525C138.427 199.269 139.295 200.306 139.914 201.636C140.534 202.966 140.844 204.504 140.844 206.251C140.844 207.987 140.534 209.525 139.914 210.866C139.295 212.196 138.427 213.239 137.311 213.994C136.206 214.738 134.905 215.11 133.406 215.11H133.051C131.856 215.11 130.768 214.839 129.788 214.298C128.807 213.757 128.018 212.957 127.421 211.898V221.804ZM132.341 212.506H132.662C134.206 212.506 135.429 211.96 136.33 210.866C137.243 209.773 137.7 208.235 137.7 206.251C137.7 204.256 137.243 202.718 136.33 201.636C135.429 200.543 134.206 199.996 132.662 199.996H132.341C131.225 199.996 130.239 200.351 129.382 201.061C128.537 201.76 127.883 202.678 127.421 203.817V208.686C127.883 209.824 128.537 210.748 129.382 211.458C130.239 212.157 131.225 212.506 132.341 212.506ZM153.697 214.924C151.747 214.924 150.31 214.45 149.386 213.504C148.473 212.546 148.017 211.041 148.017 208.99V200.233H144.703V197.798H148.017V192.76H151.06V197.798H156.537V200.233H151.06V208.618C151.06 210.016 151.291 210.99 151.753 211.543C152.226 212.084 153.021 212.354 154.137 212.354C154.644 212.354 155.1 212.326 155.506 212.27C155.912 212.213 156.335 212.146 156.774 212.067V214.535C156.323 214.648 155.827 214.738 155.286 214.805C154.745 214.884 154.216 214.924 153.697 214.924ZM163.732 194.316C163.089 194.316 162.582 194.13 162.21 193.758C161.85 193.375 161.669 192.89 161.669 192.304C161.669 191.707 161.85 191.222 162.21 190.85C162.582 190.478 163.089 190.292 163.732 190.292C164.374 190.292 164.876 190.478 165.236 190.85C165.608 191.222 165.794 191.707 165.794 192.304C165.794 192.89 165.608 193.375 165.236 193.758C164.876 194.13 164.374 194.316 163.732 194.316ZM162.21 214.704V197.798H165.253V214.704H162.21ZM179.431 215.11C177.819 215.11 176.399 214.749 175.17 214.028C173.942 213.307 172.978 212.287 172.28 210.968C171.592 209.638 171.248 208.071 171.248 206.268C171.248 204.454 171.592 202.881 172.28 201.551C172.967 200.222 173.925 199.196 175.154 198.475C176.382 197.753 177.808 197.393 179.431 197.393H179.786C181.082 197.393 182.299 197.719 183.437 198.373C184.576 199.016 185.5 199.906 186.21 201.044L183.86 202.566C183.364 201.766 182.767 201.14 182.068 200.689C181.369 200.227 180.575 199.996 179.684 199.996H179.363C177.83 199.996 176.619 200.565 175.728 201.704C174.849 202.842 174.41 204.358 174.41 206.251C174.41 208.145 174.849 209.661 175.728 210.799C176.619 211.937 177.83 212.506 179.363 212.506H179.684C180.586 212.506 181.403 212.303 182.136 211.898C182.868 211.492 183.494 210.945 184.012 210.258L186.21 211.932C185.477 212.923 184.547 213.701 183.42 214.264C182.305 214.828 181.093 215.11 179.786 215.11H179.431Z" fill="#65676B"/>
</g>
<path d="M135.25 130.761C135.25 126.759 132.006 123.515 128.004 123.515C124.003 123.516 120.759 126.759 120.759 130.761C120.759 134.763 124.003 138.007 128.004 138.007C132.006 138.007 135.25 134.763 135.25 130.761ZM144.55 130.761C144.55 139.899 137.142 147.306 128.004 147.306C118.867 147.306 111.459 139.899 111.459 130.761C111.459 121.623 118.867 114.216 128.004 114.216C137.142 114.216 144.55 121.623 144.55 130.761Z" fill="#3485FF"/>
<path d="M98.8556 107.538C100.671 105.722 103.616 105.722 105.432 107.538C107.247 109.354 107.247 112.298 105.432 114.114C96.2376 123.308 96.2376 138.214 105.432 147.408C107.247 149.224 107.247 152.168 105.432 153.984C103.616 155.8 100.671 155.8 98.8556 153.984C86.0299 141.158 86.0299 120.364 98.8556 107.538Z" fill="#3485FF"/>
<path d="M85.4923 89.3619C87.3082 87.546 90.2524 87.546 92.0683 89.3619C93.8841 91.1778 93.8841 94.1218 92.0683 95.9376C72.8365 115.169 72.8365 146.351 92.0683 165.583C93.8841 167.399 93.8841 170.343 92.0683 172.159C90.2524 173.975 87.3082 173.975 85.4923 172.159C62.6288 149.296 62.6289 112.225 85.4923 89.3619Z" fill="#3485FF"/>
<path d="M150.578 107.538C152.394 105.722 155.338 105.722 157.153 107.538C169.979 120.364 169.979 141.158 157.153 153.984C155.338 155.8 152.394 155.8 150.578 153.984C148.762 152.168 148.762 149.224 150.578 147.408C159.772 138.214 159.772 123.308 150.578 114.114C148.762 112.298 148.762 109.354 150.578 107.538Z" fill="#3485FF"/>
<path d="M163.938 89.3634C165.754 87.5475 168.698 87.5475 170.514 89.3634C193.377 112.227 193.377 149.297 170.514 172.161C168.698 173.977 165.754 173.977 163.938 172.161C162.122 170.345 162.122 167.401 163.938 165.585C183.17 146.353 183.17 115.171 163.938 95.9391C162.122 94.1232 162.122 91.1793 163.938 89.3634Z" fill="#3485FF"/>
</g>
<defs>
<filter id="filter0_d_841_14104" x="35.5385" y="10.2902" width="185.92" height="244.89" filterUnits="userSpaceOnUse" color-interpolation-filters="sRGB">
<feFlood flood-opacity="0" result="BackgroundImageFix"/>
<feColorMatrix in="SourceAlpha" type="matrix" values="0 0 0 0 0 0 0 0 0 0 0 0 0 0 0 0 0 0 127 0" result="hardAlpha"/>
<feOffset dy="5.09177"/>
<feGaussianBlur stdDeviation="3.56424"/>
<feComposite in2="hardAlpha" operator="out"/>
<feColorMatrix type="matrix" values="0 0 0 0 0 0 0 0 0 0 0 0 0 0 0 0 0 0 0.3 0"/>
<feBlend mode="normal" in2="BackgroundImageFix" result="effect1_dropShadow_841_14104"/>
<feBlend mode="normal" in="SourceGraphic" in2="effect1_dropShadow_841_14104" result="shape"/>
</filter>
<filter id="filter1_di_841_14104" x="135.587" y="2.29335" width="92.6922" height="92.0718" filterUnits="userSpaceOnUse" color-interpolation-filters="sRGB">
<feFlood flood-opacity="0" result="BackgroundImageFix"/>
<feColorMatrix in="SourceAlpha" type="matrix" values="0 0 0 0 0 0 0 0 0 0 0 0 0 0 0 0 0 0 127 0" result="hardAlpha"/>
<feOffset dx="-2.54588" dy="5.09177"/>
<feGaussianBlur stdDeviation="6.36471"/>
<feComposite in2="hardAlpha" operator="out"/>
<feColorMatrix type="matrix" values="0 0 0 0 0 0 0 0 0 0 0 0 0 0 0 0 0 0 0.3 0"/>
<feBlend mode="normal" in2="BackgroundImageFix" result="effect1_dropShadow_841_14104"/>
<feBlend mode="normal" in="SourceGraphic" in2="effect1_dropShadow_841_14104" result="shape"/>
<feColorMatrix in="SourceAlpha" type="matrix" values="0 0 0 0 0 0 0 0 0 0 0 0 0 0 0 0 0 0 127 0" result="hardAlpha"/>
<feOffset dx="-2.54588" dy="2.54588"/>
<feGaussianBlur stdDeviation="2.54588"/>
<feComposite in2="hardAlpha" operator="arithmetic" k2="-1" k3="1"/>
<feColorMatrix type="matrix" values="0 0 0 0 0 0 0 0 0 0 0 0 0 0 0 0 0 0 0.05 0"/>
<feBlend mode="normal" in2="shape" result="effect2_innerShadow_841_14104"/>
</filter>
<clipPath id="clip0_841_14104">
<rect width="256" height="256" fill="white"/>
</clipPath>
</defs>
</svg>
